<svg width="155" height="100" viewBox="0 0 155 100" fill="none" xmlns="http://www.w3.org/2000/svg">
<rect width="155" height="100" rx="10" fill="white"/>
<g clip-path="url(#clip0_0_107)">
<path d="M25.908 36.168C25.1613 36.168 24.4707 36.0327 23.836 35.762C23.2107 35.4913 22.66 35.1133 22.184 34.628C21.7173 34.1427 21.3533 33.5733 21.092 32.92C20.8307 32.2667 20.7 31.5527 20.7 30.778C20.7 30.0033 20.826 29.2893 21.078 28.636C21.3393 27.9733 21.7033 27.404 22.17 26.928C22.646 26.4427 23.2013 26.0693 23.836 25.808C24.4707 25.5373 25.1613 25.402 25.908 25.402C26.6547 25.402 27.322 25.528 27.91 25.78C28.5073 26.032 29.0113 26.368 29.422 26.788C29.8327 27.1987 30.1267 27.6513 30.304 28.146L28.596 28.944C28.4 28.4213 28.0687 27.992 27.602 27.656C27.1353 27.3107 26.5707 27.138 25.908 27.138C25.2547 27.138 24.676 27.292 24.172 27.6C23.6773 27.908 23.29 28.3327 23.01 28.874C22.7393 29.4153 22.604 30.05 22.604 30.778C22.604 31.506 22.7393 32.1453 23.01 32.696C23.29 33.2373 23.6773 33.662 24.172 33.97C24.676 34.278 25.2547 34.432 25.908 34.432C26.5707 34.432 27.1353 34.264 27.602 33.928C28.0687 33.5827 28.4 33.1487 28.596 32.626L30.304 33.424C30.1267 33.9187 29.8327 34.376 29.422 34.796C29.0113 35.2067 28.5073 35.538 27.91 35.79C27.322 36.042 26.6547 36.168 25.908 36.168ZM35.2831 36.168C34.5364 36.168 33.8551 35.9953 33.2391 35.65C32.6324 35.3047 32.1471 34.8333 31.7831 34.236C31.4284 33.6387 31.2511 32.9573 31.2511 32.192C31.2511 31.4267 31.4284 30.7453 31.7831 30.148C32.1471 29.5507 32.6324 29.0793 33.2391 28.734C33.8457 28.3887 34.5271 28.216 35.2831 28.216C36.0297 28.216 36.7064 28.3887 37.3131 28.734C37.9197 29.0793 38.4004 29.5507 38.7551 30.148C39.1191 30.736 39.3011 31.4173 39.3011 32.192C39.3011 32.9573 39.1191 33.6387 38.7551 34.236C38.3911 34.8333 37.9057 35.3047 37.2991 35.65C36.6924 35.9953 36.0204 36.168 35.2831 36.168ZM35.2831 34.488C35.6937 34.488 36.0531 34.39 36.3611 34.194C36.6784 33.998 36.9257 33.7273 37.1031 33.382C37.2897 33.0273 37.3831 32.6307 37.3831 32.192C37.3831 31.744 37.2897 31.352 37.1031 31.016C36.9257 30.6707 36.6784 30.4 36.3611 30.204C36.0531 29.9987 35.6937 29.896 35.2831 29.896C34.8631 29.896 34.4944 29.9987 34.1771 30.204C33.8597 30.4 33.6077 30.6707 33.4211 31.016C33.2437 31.352 33.1551 31.744 33.1551 32.192C33.1551 32.6307 33.2437 33.0273 33.4211 33.382C33.6077 33.7273 33.8597 33.998 34.1771 34.194C34.4944 34.39 34.8631 34.488 35.2831 34.488ZM43.4079 36.168C42.8199 36.168 42.3066 36.0373 41.8679 35.776C41.4386 35.5147 41.1072 35.1507 40.8739 34.684C40.6499 34.2173 40.5379 33.6713 40.5379 33.046V28.384H42.3719V32.892C42.3719 33.2093 42.4326 33.4893 42.5539 33.732C42.6846 33.9653 42.8666 34.152 43.0999 34.292C43.3426 34.4227 43.6132 34.488 43.9119 34.488C44.2106 34.488 44.4766 34.4227 44.7099 34.292C44.9432 34.152 45.1252 33.9607 45.2559 33.718C45.3866 33.4753 45.4519 33.186 45.4519 32.85V28.384H47.2859V36H45.5499V34.502L45.7039 34.768C45.5266 35.2347 45.2326 35.5847 44.8219 35.818C44.4206 36.0513 43.9492 36.168 43.4079 36.168ZM48.9907 36V28.384H50.7127V30.078L50.5727 29.826C50.7501 29.2567 51.0254 28.86 51.3987 28.636C51.7814 28.412 52.2387 28.3 52.7707 28.3H53.2187V29.924H52.5607C52.0381 29.924 51.6181 30.0873 51.3007 30.414C50.9834 30.7313 50.8247 31.1793 50.8247 31.758V36H48.9907ZM57.125 36.168C56.313 36.168 55.6037 35.9767 54.997 35.594C54.3997 35.202 53.989 34.6747 53.765 34.012L55.137 33.354C55.333 33.7833 55.6037 34.1193 55.949 34.362C56.3037 34.6047 56.6957 34.726 57.125 34.726C57.461 34.726 57.727 34.6513 57.923 34.502C58.119 34.3527 58.217 34.1567 58.217 33.914C58.217 33.7647 58.175 33.6433 58.091 33.55C58.0164 33.4473 57.909 33.3633 57.769 33.298C57.6384 33.2233 57.4937 33.1627 57.335 33.116L56.089 32.766C55.445 32.5793 54.955 32.2947 54.619 31.912C54.2924 31.5293 54.129 31.0767 54.129 30.554C54.129 30.0873 54.2457 29.6813 54.479 29.336C54.7217 28.9813 55.053 28.706 55.473 28.51C55.9024 28.314 56.3924 28.216 56.943 28.216C57.6617 28.216 58.2964 28.3887 58.847 28.734C59.3977 29.0793 59.7897 29.5647 60.023 30.19L58.623 30.848C58.4924 30.5027 58.273 30.2273 57.965 30.022C57.657 29.8167 57.3117 29.714 56.929 29.714C56.621 29.714 56.3784 29.784 56.201 29.924C56.0237 30.064 55.935 30.246 55.935 30.47C55.935 30.61 55.9724 30.7313 56.047 30.834C56.1217 30.9367 56.2244 31.0207 56.355 31.086C56.495 31.1513 56.6537 31.212 56.831 31.268L58.049 31.632C58.6744 31.8187 59.155 32.0987 59.491 32.472C59.8364 32.8453 60.009 33.3027 60.009 33.844C60.009 34.3013 59.8877 34.7073 59.645 35.062C59.4024 35.4073 59.0664 35.678 58.637 35.874C58.2077 36.07 57.7037 36.168 57.125 36.168ZM65.0305 36.168C64.2465 36.168 63.5605 35.9907 62.9725 35.636C62.3845 35.2813 61.9271 34.8007 61.6005 34.194C61.2738 33.5873 61.1105 32.9153 61.1105 32.178C61.1105 31.4127 61.2738 30.736 61.6005 30.148C61.9365 29.5507 62.3891 29.0793 62.9585 28.734C63.5371 28.3887 64.1811 28.216 64.8905 28.216C65.4878 28.216 66.0105 28.314 66.4585 28.51C66.9158 28.706 67.3031 28.9767 67.6205 29.322C67.9378 29.6673 68.1805 30.064 68.3485 30.512C68.5165 30.9507 68.6005 31.4267 68.6005 31.94C68.6005 32.0707 68.5911 32.206 68.5725 32.346C68.5631 32.486 68.5398 32.6073 68.5025 32.71H62.6225V31.31H67.4665L66.5985 31.968C66.6825 31.5387 66.6591 31.156 66.5285 30.82C66.4071 30.484 66.2018 30.218 65.9125 30.022C65.6325 29.826 65.2918 29.728 64.8905 29.728C64.5078 29.728 64.1671 29.826 63.8685 30.022C63.5698 30.2087 63.3411 30.4887 63.1825 30.862C63.0331 31.226 62.9771 31.6693 63.0145 32.192C62.9771 32.6587 63.0378 33.074 63.1965 33.438C63.3645 33.7927 63.6071 34.068 63.9245 34.264C64.2511 34.46 64.6245 34.558 65.0445 34.558C65.4645 34.558 65.8191 34.4693 66.1085 34.292C66.4071 34.1147 66.6405 33.8767 66.8085 33.578L68.2925 34.306C68.1431 34.67 67.9098 34.992 67.5925 35.272C67.2751 35.552 66.8971 35.7713 66.4585 35.93C66.0291 36.0887 65.5531 36.168 65.0305 36.168ZM72.479 36V25.402H74.313V29.882L74.061 29.616C74.2383 29.1587 74.5277 28.8133 74.929 28.58C75.3397 28.3373 75.8157 28.216 76.357 28.216C76.917 28.216 77.4117 28.3373 77.841 28.58C78.2797 28.8227 78.6203 29.1633 78.863 29.602C79.1057 30.0313 79.227 30.5307 79.227 31.1V36H77.393V31.534C77.393 31.198 77.3277 30.9087 77.197 30.666C77.0663 30.4233 76.8843 30.2367 76.651 30.106C76.427 29.966 76.161 29.896 75.853 29.896C75.5543 29.896 75.2883 29.966 75.055 30.106C74.8217 30.2367 74.6397 30.4233 74.509 30.666C74.3783 30.9087 74.313 31.198 74.313 31.534V36H72.479ZM84.5018 36.168C83.7552 36.168 83.0738 35.9953 82.4578 35.65C81.8512 35.3047 81.3658 34.8333 81.0018 34.236C80.6472 33.6387 80.4698 32.9573 80.4698 32.192C80.4698 31.4267 80.6472 30.7453 81.0018 30.148C81.3658 29.5507 81.8512 29.0793 82.4578 28.734C83.0645 28.3887 83.7458 28.216 84.5018 28.216C85.2485 28.216 85.9252 28.3887 86.5318 28.734C87.1385 29.0793 87.6192 29.5507 87.9738 30.148C88.3378 30.736 88.5198 31.4173 88.5198 32.192C88.5198 32.9573 88.3378 33.6387 87.9738 34.236C87.6098 34.8333 87.1245 35.3047 86.5178 35.65C85.9112 35.9953 85.2392 36.168 84.5018 36.168ZM84.5018 34.488C84.9125 34.488 85.2718 34.39 85.5798 34.194C85.8972 33.998 86.1445 33.7273 86.3218 33.382C86.5085 33.0273 86.6018 32.6307 86.6018 32.192C86.6018 31.744 86.5085 31.352 86.3218 31.016C86.1445 30.6707 85.8972 30.4 85.5798 30.204C85.2718 29.9987 84.9125 29.896 84.5018 29.896C84.0818 29.896 83.7132 29.9987 83.3958 30.204C83.0785 30.4 82.8265 30.6707 82.6398 31.016C82.4625 31.352 82.3738 31.744 82.3738 32.192C82.3738 32.6307 82.4625 33.0273 82.6398 33.382C82.8265 33.7273 83.0785 33.998 83.3958 34.194C83.7132 34.39 84.0818 34.488 84.5018 34.488ZM92.6266 36.168C92.0386 36.168 91.5253 36.0373 91.0866 35.776C90.6573 35.5147 90.326 35.1507 90.0926 34.684C89.8686 34.2173 89.7566 33.6713 89.7566 33.046V28.384H91.5906V32.892C91.5906 33.2093 91.6513 33.4893 91.7726 33.732C91.9033 33.9653 92.0853 34.152 92.3186 34.292C92.5613 34.4227 92.832 34.488 93.1306 34.488C93.4293 34.488 93.6953 34.4227 93.9286 34.292C94.162 34.152 94.344 33.9607 94.4746 33.718C94.6053 33.4753 94.6706 33.186 94.6706 32.85V28.384H96.5046V36H94.7686V34.502L94.9226 34.768C94.7453 35.2347 94.4513 35.5847 94.0406 35.818C93.6393 36.0513 93.168 36.168 92.6266 36.168ZM98.2095 36V28.384H99.9315V30.078L99.7915 29.826C99.9688 29.2567 100.244 28.86 100.617 28.636C101 28.412 101.457 28.3 101.989 28.3H102.437V29.924H101.779C101.257 29.924 100.837 30.0873 100.519 30.414C100.202 30.7313 100.043 31.1793 100.043 31.758V36H98.2095ZM106.344 36.168C105.532 36.168 104.822 35.9767 104.216 35.594C103.618 35.202 103.208 34.6747 102.984 34.012L104.356 33.354C104.552 33.7833 104.822 34.1193 105.168 34.362C105.522 34.6047 105.914 34.726 106.344 34.726C106.68 34.726 106.946 34.6513 107.142 34.502C107.338 34.3527 107.436 34.1567 107.436 33.914C107.436 33.7647 107.394 33.6433 107.31 33.55C107.235 33.4473 107.128 33.3633 106.988 33.298C106.857 33.2233 106.712 33.1627 106.554 33.116L105.308 32.766C104.664 32.5793 104.174 32.2947 103.838 31.912C103.511 31.5293 103.348 31.0767 103.348 30.554C103.348 30.0873 103.464 29.6813 103.698 29.336C103.94 28.9813 104.272 28.706 104.692 28.51C105.121 28.314 105.611 28.216 106.162 28.216C106.88 28.216 107.515 28.3887 108.066 28.734C108.616 29.0793 109.008 29.5647 109.242 30.19L107.842 30.848C107.711 30.5027 107.492 30.2273 107.184 30.022C106.876 29.8167 106.53 29.714 106.148 29.714C105.84 29.714 105.597 29.784 105.42 29.924C105.242 30.064 105.154 30.246 105.154 30.47C105.154 30.61 105.191 30.7313 105.266 30.834C105.34 30.9367 105.443 31.0207 105.574 31.086C105.714 31.1513 105.872 31.212 106.05 31.268L107.268 31.632C107.893 31.8187 108.374 32.0987 108.71 32.472C109.055 32.8453 109.228 33.3027 109.228 33.844C109.228 34.3013 109.106 34.7073 108.864 35.062C108.621 35.4073 108.285 35.678 107.856 35.874C107.426 36.07 106.922 36.168 106.344 36.168Z" fill="#83869A"/>
<path d="M25.44 77H30.4V53.16H20.8V57.352H25.44V77ZM36.7388 82.28C40.3654 81.5333 42.1788 79.1013 42.1788 74.984V72.2H37.3788V77H39.5228C39.3734 77.7893 39.0534 78.4187 38.5628 78.888C38.0934 79.3787 37.4854 79.7093 36.7388 79.88V82.28ZM57.1465 77H62.1065V71.88H65.7865V67.72H62.1065V53.16H56.8265L46.5865 67.72V71.88H57.1465V77ZM57.1465 67.72H51.4185L57.1465 59.24V67.72ZM76.19 77.384C77.854 77.384 79.3367 77.032 80.638 76.328C81.9393 75.6027 82.9633 74.6213 83.71 73.384C84.478 72.1253 84.862 70.7173 84.862 69.16C84.862 67.6027 84.542 66.2373 83.902 65.064C83.2833 63.8907 82.398 62.9733 81.246 62.312C80.094 61.6293 78.718 61.288 77.118 61.288C75.6673 61.288 74.5047 61.544 73.63 62.056L74.27 57.32H83.998V53.16H70.686L68.766 66.504L72.83 67.464C73.1073 66.7813 73.5447 66.28 74.142 65.96C74.7393 65.6187 75.422 65.448 76.19 65.448C77.2993 65.448 78.1953 65.7893 78.878 66.472C79.5607 67.1547 79.902 68.0507 79.902 69.16C79.902 70.2693 79.5607 71.176 78.878 71.88C78.1953 72.5627 77.2993 72.904 76.19 72.904C75.3153 72.904 74.526 72.6693 73.822 72.2C73.118 71.7307 72.606 70.984 72.286 69.96L67.902 71.432C68.158 72.6693 68.702 73.736 69.534 74.632C70.366 75.5067 71.3687 76.1893 72.542 76.68C73.7153 77.1493 74.9313 77.384 76.19 77.384ZM91.8463 77H96.8063V53.16H87.2063V57.352H91.8463V77Z" fill="#13183F"/>
</g>
<defs>
<clipPath id="clip0_0_107">
<rect width="90" height="68" fill="white" transform="translate(20 16)"/>
</clipPath>
</defs>
</svg>
