<svg width="155" height="100" viewBox="0 0 155 100" fill="none" xmlns="http://www.w3.org/2000/svg">
<rect width="155" height="100" rx="10" fill="white"/>
<g clip-path="url(#clip0_0_107)">
<path d="M25.908 36.168C26.6547 36.168 27.322 36.042 27.91 35.79C28.5073 35.538 29.0113 35.2067 29.422 34.796C29.8327 34.376 30.1267 33.9187 30.304 33.424L28.596 32.626C28.3907 33.1487 28.0547 33.5827 27.588 33.928C27.1307 34.264 26.5707 34.432 25.908 34.432C25.2547 34.432 24.6807 34.278 24.186 33.97C23.6913 33.662 23.304 33.2373 23.024 32.696C22.744 32.1453 22.604 31.506 22.604 30.778C22.604 30.05 22.744 29.4153 23.024 28.874C23.304 28.3233 23.6913 27.8987 24.186 27.6C24.6807 27.292 25.2547 27.138 25.908 27.138C26.5707 27.138 27.1307 27.3107 27.588 27.656C28.0547 27.992 28.3907 28.4213 28.596 28.944L30.304 28.146C30.1267 27.6513 29.8327 27.1987 29.422 26.788C29.0113 26.368 28.5073 26.032 27.91 25.78C27.322 25.528 26.6547 25.402 25.908 25.402C25.1613 25.402 24.4707 25.5373 23.836 25.808C23.2013 26.0693 22.6507 26.4427 22.184 26.928C21.7173 27.404 21.3533 27.9733 21.092 28.636C20.8307 29.2893 20.7 30.0033 20.7 30.778C20.7 31.5527 20.8307 32.2713 21.092 32.934C21.3533 33.5873 21.7173 34.1567 22.184 34.642C22.6507 35.1273 23.2013 35.5053 23.836 35.776C24.4707 36.0373 25.1613 36.168 25.908 36.168ZM35.2831 36.168C36.0204 36.168 36.6924 36 37.2991 35.664C37.9057 35.3187 38.3911 34.8473 38.7551 34.25C39.1191 33.6433 39.3011 32.9573 39.3011 32.192C39.3011 31.4267 39.1191 30.7453 38.7551 30.148C38.4004 29.5507 37.9197 29.0793 37.3131 28.734C36.7064 28.3887 36.0297 28.216 35.2831 28.216C34.5271 28.216 33.8457 28.3887 33.2391 28.734C32.6324 29.0793 32.1471 29.5507 31.7831 30.148C31.4284 30.7453 31.2511 31.4267 31.2511 32.192C31.2511 32.9573 31.4284 33.6387 31.7831 34.236C32.1471 34.8333 32.6324 35.3047 33.2391 35.65C33.8551 35.9953 34.5364 36.168 35.2831 36.168ZM35.2831 34.488C34.8724 34.488 34.5037 34.39 34.1771 34.194C33.8597 33.998 33.6077 33.7273 33.4211 33.382C33.2437 33.0273 33.1551 32.6307 33.1551 32.192C33.1551 31.7533 33.2437 31.3613 33.4211 31.016C33.6077 30.6707 33.8597 30.4 34.1771 30.204C34.5037 29.9987 34.8724 29.896 35.2831 29.896C35.6937 29.896 36.0531 29.9987 36.3611 30.204C36.6784 30.4 36.9257 30.6707 37.1031 31.016C37.2897 31.3613 37.3831 31.7533 37.3831 32.192C37.3831 32.6307 37.2897 33.0273 37.1031 33.382C36.9257 33.7273 36.6784 33.998 36.3611 34.194C36.0531 34.39 35.6937 34.488 35.2831 34.488ZM43.4079 36.168C43.8839 36.168 44.3039 36.0793 44.6679 35.902C45.0412 35.7153 45.3352 35.4447 45.5499 35.09V36H47.2859V28.384H45.4519V32.85C45.4519 33.354 45.3072 33.7553 45.0179 34.054C44.7286 34.3433 44.3599 34.488 43.9119 34.488C43.4546 34.488 43.0812 34.3433 42.7919 34.054C42.5119 33.7647 42.3719 33.3773 42.3719 32.892V28.384H40.5379V33.046C40.5379 33.9793 40.7899 34.7353 41.2939 35.314C41.8072 35.8833 42.5119 36.168 43.4079 36.168ZM48.9907 36H50.8247V31.758C50.8247 31.1793 50.9834 30.7313 51.3007 30.414C51.6274 30.0873 52.0474 29.924 52.5607 29.924H53.2187V28.3H52.7707C52.3041 28.3 51.8934 28.384 51.5387 28.552C51.1841 28.72 50.9087 29.0233 50.7127 29.462V28.384H48.9907V36ZM57.125 36.168C57.7037 36.168 58.2077 36.07 58.637 35.874C59.0664 35.678 59.4024 35.4073 59.645 35.062C59.8877 34.7073 60.009 34.3013 60.009 33.844C60.009 33.312 59.841 32.8547 59.505 32.472C59.169 32.0893 58.6837 31.8093 58.049 31.632L56.831 31.268C56.5697 31.1933 56.355 31.0953 56.187 30.974C56.019 30.8527 55.935 30.6847 55.935 30.47C55.935 30.246 56.0237 30.064 56.201 29.924C56.3784 29.784 56.621 29.714 56.929 29.714C57.3117 29.714 57.657 29.8167 57.965 30.022C58.2824 30.2273 58.5017 30.5027 58.623 30.848L60.023 30.19C59.7897 29.574 59.3977 29.0933 58.847 28.748C58.2964 28.3933 57.6617 28.216 56.943 28.216C56.3924 28.216 55.9024 28.314 55.473 28.51C55.053 28.706 54.7217 28.9813 54.479 29.336C54.2457 29.6813 54.129 30.0873 54.129 30.554C54.129 31.0767 54.2924 31.5293 54.619 31.912C54.955 32.2947 55.445 32.5793 56.089 32.766L57.335 33.116C57.5777 33.1813 57.783 33.2793 57.951 33.41C58.1284 33.5313 58.217 33.6993 58.217 33.914C58.217 34.166 58.1144 34.3667 57.909 34.516C57.713 34.656 57.4517 34.726 57.125 34.726C56.6957 34.726 56.3084 34.6047 55.963 34.362C55.6177 34.1193 55.3424 33.7833 55.137 33.354L53.765 34.012C53.989 34.6653 54.3997 35.188 54.997 35.58C55.6037 35.972 56.313 36.168 57.125 36.168ZM65.0305 36.168C65.8051 36.168 66.4818 35.9953 67.0605 35.65C67.6485 35.2953 68.0591 34.8473 68.2925 34.306L66.8085 33.578C66.6405 33.8673 66.4071 34.1053 66.1085 34.292C65.8191 34.4693 65.4645 34.558 65.0445 34.558C64.4938 34.558 64.0318 34.39 63.6585 34.054C63.2851 33.718 63.0705 33.27 63.0145 32.71H68.5025C68.5398 32.6073 68.5631 32.4907 68.5725 32.36C68.5911 32.22 68.6005 32.08 68.6005 31.94C68.6005 31.2587 68.4558 30.638 68.1665 30.078C67.8771 29.518 67.4571 29.07 66.9065 28.734C66.3558 28.3887 65.6838 28.216 64.8905 28.216C64.1811 28.216 63.5371 28.3887 62.9585 28.734C62.3891 29.0793 61.9365 29.5507 61.6005 30.148C61.2738 30.736 61.1105 31.4127 61.1105 32.178C61.1105 32.9153 61.2738 33.5873 61.6005 34.194C61.9271 34.8007 62.3845 35.2813 62.9725 35.636C63.5605 35.9907 64.2465 36.168 65.0305 36.168ZM64.8905 29.728C65.3758 29.728 65.7771 29.8773 66.0945 30.176C66.4211 30.4653 66.6031 30.8433 66.6405 31.31H63.0565C63.1591 30.806 63.3738 30.4187 63.7005 30.148C64.0365 29.868 64.4331 29.728 64.8905 29.728ZM72.479 36H74.313V31.534C74.313 31.0393 74.4577 30.6427 74.747 30.344C75.0363 30.0453 75.405 29.896 75.853 29.896C76.301 29.896 76.6697 30.0453 76.959 30.344C77.2483 30.6333 77.393 31.03 77.393 31.534V36H79.227V31.1C79.227 30.5307 79.1057 30.0313 78.863 29.602C78.6203 29.1633 78.2797 28.8227 77.841 28.58C77.4117 28.3373 76.917 28.216 76.357 28.216C75.9183 28.216 75.5217 28.2953 75.167 28.454C74.8123 28.6033 74.5277 28.832 74.313 29.14V25.402H72.479V36ZM84.5018 36.168C85.2392 36.168 85.9112 36 86.5178 35.664C87.1245 35.3187 87.6098 34.8473 87.9738 34.25C88.3378 33.6433 88.5198 32.9573 88.5198 32.192C88.5198 31.4267 88.3378 30.7453 87.9738 30.148C87.6192 29.5507 87.1385 29.0793 86.5318 28.734C85.9252 28.3887 85.2485 28.216 84.5018 28.216C83.7458 28.216 83.0645 28.3887 82.4578 28.734C81.8512 29.0793 81.3658 29.5507 81.0018 30.148C80.6472 30.7453 80.4698 31.4267 80.4698 32.192C80.4698 32.9573 80.6472 33.6387 81.0018 34.236C81.3658 34.8333 81.8512 35.3047 82.4578 35.65C83.0738 35.9953 83.7552 36.168 84.5018 36.168ZM84.5018 34.488C84.0912 34.488 83.7225 34.39 83.3958 34.194C83.0785 33.998 82.8265 33.7273 82.6398 33.382C82.4625 33.0273 82.3738 32.6307 82.3738 32.192C82.3738 31.7533 82.4625 31.3613 82.6398 31.016C82.8265 30.6707 83.0785 30.4 83.3958 30.204C83.7225 29.9987 84.0912 29.896 84.5018 29.896C84.9125 29.896 85.2718 29.9987 85.5798 30.204C85.8972 30.4 86.1445 30.6707 86.3218 31.016C86.5085 31.3613 86.6018 31.7533 86.6018 32.192C86.6018 32.6307 86.5085 33.0273 86.3218 33.382C86.1445 33.7273 85.8972 33.998 85.5798 34.194C85.2718 34.39 84.9125 34.488 84.5018 34.488ZM92.6266 36.168C93.1026 36.168 93.5226 36.0793 93.8866 35.902C94.26 35.7153 94.554 35.4447 94.7686 35.09V36H96.5046V28.384H94.6706V32.85C94.6706 33.354 94.526 33.7553 94.2366 34.054C93.9473 34.3433 93.5786 34.488 93.1306 34.488C92.6733 34.488 92.3 34.3433 92.0106 34.054C91.7306 33.7647 91.5906 33.3773 91.5906 32.892V28.384H89.7566V33.046C89.7566 33.9793 90.0086 34.7353 90.5126 35.314C91.026 35.8833 91.7306 36.168 92.6266 36.168ZM98.2095 36H100.043V31.758C100.043 31.1793 100.202 30.7313 100.519 30.414C100.846 30.0873 101.266 29.924 101.779 29.924H102.437V28.3H101.989C101.523 28.3 101.112 28.384 100.757 28.552C100.403 28.72 100.127 29.0233 99.9315 29.462V28.384H98.2095V36ZM106.344 36.168C106.922 36.168 107.426 36.07 107.856 35.874C108.285 35.678 108.621 35.4073 108.864 35.062C109.106 34.7073 109.228 34.3013 109.228 33.844C109.228 33.312 109.06 32.8547 108.724 32.472C108.388 32.0893 107.902 31.8093 107.268 31.632L106.05 31.268C105.788 31.1933 105.574 31.0953 105.406 30.974C105.238 30.8527 105.154 30.6847 105.154 30.47C105.154 30.246 105.242 30.064 105.42 29.924C105.597 29.784 105.84 29.714 106.148 29.714C106.53 29.714 106.876 29.8167 107.184 30.022C107.501 30.2273 107.72 30.5027 107.842 30.848L109.242 30.19C109.008 29.574 108.616 29.0933 108.066 28.748C107.515 28.3933 106.88 28.216 106.162 28.216C105.611 28.216 105.121 28.314 104.692 28.51C104.272 28.706 103.94 28.9813 103.698 29.336C103.464 29.6813 103.348 30.0873 103.348 30.554C103.348 31.0767 103.511 31.5293 103.838 31.912C104.174 32.2947 104.664 32.5793 105.308 32.766L106.554 33.116C106.796 33.1813 107.002 33.2793 107.17 33.41C107.347 33.5313 107.436 33.6993 107.436 33.914C107.436 34.166 107.333 34.3667 107.128 34.516C106.932 34.656 106.67 34.726 106.344 34.726C105.914 34.726 105.527 34.6047 105.182 34.362C104.836 34.1193 104.561 33.7833 104.356 33.354L102.984 34.012C103.208 34.6653 103.618 35.188 104.216 35.58C104.822 35.972 105.532 36.168 106.344 36.168Z" fill="#83869A"/>
<path d="M25.44 77H30.4V53.16H20.8V57.352H25.44V77ZM36.7388 82.28C40.3654 81.5333 42.1788 79.1013 42.1788 74.984V72.2H37.3788V77H39.5228C39.3734 77.7893 39.0534 78.4187 38.5628 78.888C38.0934 79.3787 37.4854 79.7093 36.7388 79.88V82.28ZM57.1465 77H62.1065V71.88H65.7865V67.72H62.1065V53.16H56.8265L46.5865 67.72V71.88H57.1465V77ZM57.1465 67.72H51.4185L57.1465 59.24V67.72ZM76.19 77.384C77.854 77.384 79.3367 77.032 80.638 76.328C81.9393 75.6027 82.9633 74.6213 83.71 73.384C84.478 72.1253 84.862 70.7173 84.862 69.16C84.862 67.6027 84.542 66.2373 83.902 65.064C83.2833 63.8907 82.398 62.9733 81.246 62.312C80.094 61.6293 78.718 61.288 77.118 61.288C75.6673 61.288 74.5047 61.544 73.63 62.056L74.27 57.32H83.998V53.16H70.686L68.766 66.504L72.83 67.464C73.1073 66.7813 73.5447 66.28 74.142 65.96C74.7393 65.6187 75.422 65.448 76.19 65.448C77.2993 65.448 78.1953 65.7893 78.878 66.472C79.5607 67.1547 79.902 68.0507 79.902 69.16C79.902 70.2693 79.5607 71.176 78.878 71.88C78.1953 72.5627 77.2993 72.904 76.19 72.904C75.3153 72.904 74.526 72.6693 73.822 72.2C73.118 71.7307 72.606 70.984 72.286 69.96L67.902 71.432C68.158 72.6693 68.702 73.736 69.534 74.632C70.366 75.5067 71.3687 76.1893 72.542 76.68C73.7153 77.1493 74.9313 77.384 76.19 77.384ZM91.8463 77H96.8063V53.16H87.2063V57.352H91.8463V77Z" fill="#13183F"/>
</g>
<defs>
<clipPath id="clip0_0_107">
<rect width="90" height="68" fill="white" transform="translate(20 16)"/>
</clipPath>
</defs>
</svg>
