<svg width="105" height="100" viewBox="0 0 105 100" fill="none" xmlns="http://www.w3.org/2000/svg">
<rect width="105" height="100" rx="10" fill="white"/>
<g clip-path="url(#clip0_0_114)">
<path d="M21.008 36H22.912V28.776L26.146 33.2H26.37L29.59 28.916V36H31.508V25.57H29.688L26.3 30.274L22.828 25.57H21.008V36ZM36.9621 36.168C37.7368 36.168 38.4134 35.9953 38.9921 35.65C39.5801 35.2953 39.9908 34.8473 40.2241 34.306L38.7401 33.578C38.5721 33.8673 38.3388 34.1053 38.0401 34.292C37.7508 34.4693 37.3961 34.558 36.9761 34.558C36.4254 34.558 35.9634 34.39 35.5901 34.054C35.2168 33.718 35.0021 33.27 34.9461 32.71H40.4341C40.4714 32.6073 40.4948 32.4907 40.5041 32.36C40.5228 32.22 40.5321 32.08 40.5321 31.94C40.5321 31.2587 40.3874 30.638 40.0981 30.078C39.8088 29.518 39.3888 29.07 38.8381 28.734C38.2874 28.3887 37.6154 28.216 36.8221 28.216C36.1128 28.216 35.4688 28.3887 34.8901 28.734C34.3208 29.0793 33.8681 29.5507 33.5321 30.148C33.2054 30.736 33.0421 31.4127 33.0421 32.178C33.0421 32.9153 33.2054 33.5873 33.5321 34.194C33.8588 34.8007 34.3161 35.2813 34.9041 35.636C35.4921 35.9907 36.1781 36.168 36.9621 36.168ZM36.8221 29.728C37.3074 29.728 37.7088 29.8773 38.0261 30.176C38.3528 30.4653 38.5348 30.8433 38.5721 31.31H34.9881C35.0908 30.806 35.3054 30.4187 35.6321 30.148C35.9681 29.868 36.3648 29.728 36.8221 29.728ZM41.9224 36H43.7564V31.534C43.7564 31.0393 43.8917 30.6427 44.1624 30.344C44.433 30.0453 44.7877 29.896 45.2264 29.896C45.6744 29.896 46.029 30.0453 46.2904 30.344C46.561 30.6333 46.6964 31.03 46.6964 31.534V36H48.5304V31.534C48.5304 31.0393 48.6657 30.6427 48.9364 30.344C49.207 30.0453 49.5617 29.896 50.0004 29.896C50.4484 29.896 50.803 30.0453 51.0644 30.344C51.335 30.6333 51.4704 31.03 51.4704 31.534V36H53.3044V31.1C53.3044 30.5307 53.1784 30.0313 52.9264 29.602C52.6837 29.1633 52.3524 28.8227 51.9324 28.58C51.5124 28.3373 51.0317 28.216 50.4904 28.216C49.9864 28.216 49.529 28.3187 49.1184 28.524C48.717 28.7293 48.3857 29.0373 48.1244 29.448C47.9004 29.0747 47.5784 28.776 47.1584 28.552C46.7477 28.328 46.2857 28.216 45.7724 28.216C45.2964 28.216 44.8717 28.3093 44.4984 28.496C44.125 28.6827 43.8404 28.9627 43.6444 29.336V28.384H41.9224V36ZM59.014 36.168C59.7513 36.168 60.4093 35.9953 60.988 35.65C61.5666 35.2953 62.024 34.8193 62.36 34.222C62.696 33.6153 62.864 32.9387 62.864 32.192C62.864 31.4453 62.696 30.7733 62.36 30.176C62.024 29.5693 61.5666 29.0933 60.988 28.748C60.4093 28.3933 59.756 28.216 59.028 28.216C58.0386 28.216 57.2593 28.5287 56.69 29.154V25.402H54.856V36H56.578V35.146C56.858 35.4727 57.208 35.7247 57.628 35.902C58.0573 36.0793 58.5193 36.168 59.014 36.168ZM58.804 34.488C58.4026 34.488 58.0386 34.39 57.712 34.194C57.3946 33.998 57.1426 33.7273 56.956 33.382C56.7786 33.0367 56.69 32.64 56.69 32.192C56.69 31.744 56.7786 31.3473 56.956 31.002C57.1426 30.6567 57.3946 30.386 57.712 30.19C58.0386 29.994 58.4026 29.896 58.804 29.896C59.224 29.896 59.5926 29.9987 59.91 30.204C60.2366 30.4 60.4933 30.6707 60.68 31.016C60.8666 31.3613 60.96 31.7533 60.96 32.192C60.96 32.6307 60.8666 33.0273 60.68 33.382C60.4933 33.7273 60.2366 33.998 59.91 34.194C59.5926 34.39 59.224 34.488 58.804 34.488ZM67.8742 36.168C68.6489 36.168 69.3255 35.9953 69.9042 35.65C70.4922 35.2953 70.9029 34.8473 71.1362 34.306L69.6522 33.578C69.4842 33.8673 69.2509 34.1053 68.9522 34.292C68.6629 34.4693 68.3082 34.558 67.8882 34.558C67.3375 34.558 66.8755 34.39 66.5022 34.054C66.1289 33.718 65.9142 33.27 65.8582 32.71H71.3462C71.3835 32.6073 71.4069 32.4907 71.4162 32.36C71.4349 32.22 71.4442 32.08 71.4442 31.94C71.4442 31.2587 71.2995 30.638 71.0102 30.078C70.7209 29.518 70.3009 29.07 69.7502 28.734C69.1995 28.3887 68.5275 28.216 67.7342 28.216C67.0249 28.216 66.3809 28.3887 65.8022 28.734C65.2329 29.0793 64.7802 29.5507 64.4442 30.148C64.1175 30.736 63.9542 31.4127 63.9542 32.178C63.9542 32.9153 64.1175 33.5873 64.4442 34.194C64.7709 34.8007 65.2282 35.2813 65.8162 35.636C66.4042 35.9907 67.0902 36.168 67.8742 36.168ZM67.7342 29.728C68.2195 29.728 68.6209 29.8773 68.9382 30.176C69.2649 30.4653 69.4469 30.8433 69.4842 31.31H65.9002C66.0029 30.806 66.2175 30.4187 66.5442 30.148C66.8802 29.868 67.2769 29.728 67.7342 29.728ZM72.8345 36H74.6685V31.758C74.6685 31.1793 74.8271 30.7313 75.1445 30.414C75.4711 30.0873 75.8911 29.924 76.4045 29.924H77.0625V28.3H76.6145C76.1478 28.3 75.7371 28.384 75.3825 28.552C75.0278 28.72 74.7525 29.0233 74.5565 29.462V28.384H72.8345V36ZM80.9688 36.168C81.5475 36.168 82.0515 36.07 82.4808 35.874C82.9101 35.678 83.2461 35.4073 83.4888 35.062C83.7315 34.7073 83.8528 34.3013 83.8528 33.844C83.8528 33.312 83.6848 32.8547 83.3488 32.472C83.0128 32.0893 82.5275 31.8093 81.8928 31.632L80.6748 31.268C80.4135 31.1933 80.1988 31.0953 80.0308 30.974C79.8628 30.8527 79.7788 30.6847 79.7788 30.47C79.7788 30.246 79.8675 30.064 80.0448 29.924C80.2221 29.784 80.4648 29.714 80.7728 29.714C81.1555 29.714 81.5008 29.8167 81.8088 30.022C82.1261 30.2273 82.3455 30.5027 82.4668 30.848L83.8668 30.19C83.6335 29.574 83.2415 29.0933 82.6908 28.748C82.1401 28.3933 81.5055 28.216 80.7868 28.216C80.2361 28.216 79.7461 28.314 79.3168 28.51C78.8968 28.706 78.5655 28.9813 78.3228 29.336C78.0895 29.6813 77.9728 30.0873 77.9728 30.554C77.9728 31.0767 78.1361 31.5293 78.4628 31.912C78.7988 32.2947 79.2888 32.5793 79.9328 32.766L81.1788 33.116C81.4215 33.1813 81.6268 33.2793 81.7948 33.41C81.9721 33.5313 82.0608 33.6993 82.0608 33.914C82.0608 34.166 81.9581 34.3667 81.7528 34.516C81.5568 34.656 81.2955 34.726 80.9688 34.726C80.5395 34.726 80.1521 34.6047 79.8068 34.362C79.4615 34.1193 79.1861 33.7833 78.9808 33.354L77.6088 34.012C77.8328 34.6653 78.2435 35.188 78.8408 35.58C79.4475 35.972 80.1568 36.168 80.9688 36.168Z" fill="#83869A"/>
<path d="M21.344 77H37.504V72.84H27.648L33.12 67.208C34.5493 65.7573 35.5947 64.4347 36.256 63.24C36.9387 62.024 37.28 60.7653 37.28 59.464C37.28 58.12 36.9493 56.9467 36.288 55.944C35.6267 54.9413 34.6987 54.1627 33.504 53.608C32.3093 53.0533 30.9227 52.776 29.344 52.776C28.0853 52.776 26.88 53.032 25.728 53.544C24.576 54.0347 23.5947 54.7387 22.784 55.656C21.9733 56.5733 21.44 57.6507 21.184 58.888L25.504 60.296C25.824 59.272 26.3253 58.5147 27.008 58.024C27.6907 57.512 28.4693 57.256 29.344 57.256C30.1973 57.256 30.9013 57.512 31.456 58.024C32.032 58.5147 32.32 59.1973 32.32 60.072C32.32 60.5627 32.192 61.064 31.936 61.576C31.7013 62.088 31.2533 62.728 30.592 63.496C29.952 64.2427 29.0027 65.2667 27.744 66.568L21.344 73.16V77ZM41.5265 77H47.4465L54.0705 68.456C54.9665 67.2827 55.6385 66.2587 56.0865 65.384C56.5345 64.488 56.8332 63.6667 56.9825 62.92C57.1318 62.1733 57.2065 61.4267 57.2065 60.68C57.2065 59.1653 56.8438 57.8213 56.1185 56.648C55.3932 55.4533 54.3905 54.5147 53.1105 53.832C51.8518 53.128 50.3905 52.776 48.7265 52.776C47.0838 52.776 45.6225 53.128 44.3425 53.832C43.0625 54.536 42.0598 55.496 41.3345 56.712C40.6092 57.928 40.2465 59.3253 40.2465 60.904C40.2465 62.3333 40.5665 63.624 41.2065 64.776C41.8678 65.9067 42.7638 66.8027 43.8945 67.464C45.0465 68.1253 46.3585 68.456 47.8305 68.456C47.9585 68.456 48.0865 68.456 48.2145 68.456L41.5265 77ZM48.7265 64.392C47.7452 64.392 46.9132 64.072 46.2305 63.432C45.5478 62.7707 45.2065 61.9067 45.2065 60.84C45.2065 59.7733 45.5478 58.9093 46.2305 58.248C46.9132 57.5867 47.7452 57.256 48.7265 57.256C49.7078 57.256 50.5398 57.5867 51.2225 58.248C51.9052 58.9093 52.2465 59.7733 52.2465 60.84C52.2465 61.9067 51.9052 62.7707 51.2225 63.432C50.5398 64.072 49.7078 64.392 48.7265 64.392ZM60.135 77H64.935V71.656L66.855 69.544L71.303 77H76.743L70.439 66.568L76.775 59.528H70.855L64.935 65.832V52.776H60.135V77Z" fill="#13183F"/>
</g>
<defs>
<clipPath id="clip0_0_114">
<rect width="65" height="68" fill="white" transform="translate(20 16)"/>
</clipPath>
</defs>
</svg>
